<svg xmlns="http://www.w3.org/2000/svg" width="47" height="35" viewBox="0 0 47 35"><g><g><path fill="#f16d7f" d="M47.016 13.091c0 2.133-1.516 3.916-3.548 4.402v12.315c0 .087-.028.16-.05.242.03.124.05.253.05.389 0 4.42-17.927 4.55-19.968 4.55-2.044 0-19.968-.13-19.968-4.55 0-.136.018-.265.05-.389-.019-.082-.05-.155-.05-.242V17.493c-2.03-.486-3.548-2.269-3.548-4.402 0-2.503 2.087-4.542 4.648-4.542 2.562 0 4.646 2.039 4.646 4.542 0 1.343-.607 2.54-1.559 3.372l5.86 2.06 8.355-9.717c-1.77-.643-3.046-2.296-3.046-4.25 0-2.505 2.086-4.545 4.646-4.545 2.563 0 4.647 2.04 4.647 4.544 0 1.974-1.3 3.638-3.098 4.266l8.342 9.701 5.862-2.059c-.953-.833-1.56-2.03-1.56-3.372 0-2.503 2.083-4.542 4.647-4.542 2.56 0 4.645 2.039 4.642 4.542zM23.536 6.89c1.313 0 2.385-1.046 2.385-2.333 0-1.287-1.072-2.334-2.385-2.334-1.316 0-2.387 1.047-2.387 2.334 0 1.287 1.071 2.333 2.387 2.333zM5.792 18.135v9.958c4.885-2.126 16.115-2.205 17.708-2.205s12.82.079 17.707 2.205v-9.957l-7.76 2.73a1.154 1.154 0 0 1-1.245-.332l-8.7-10.119-8.7 10.12a1.155 1.155 0 0 1-1.246.33zm34.274 12.779c.454-.167.792-.329.995-.475-.72-.523-3.06-1.235-6.967-1.736-2.755-.354-6.28-.605-10.591-.605-4.31 0-7.836.25-10.59.605-3.907.5-6.247 1.213-6.968 1.736.203.142.542.308.996.475 2.308.852 7.854 1.865 16.562 1.865 8.71 0 14.256-1.013 16.563-1.865zM4.636 15.425c1.316 0 2.386-1.047 2.386-2.334 0-1.285-1.07-2.331-2.386-2.331S2.25 11.806 2.25 13.09c0 1.287 1.071 2.334 2.387 2.334zm40.125-2.334c0-1.285-1.074-2.331-2.387-2.331-1.316 0-2.387 1.046-2.387 2.331 0 1.287 1.071 2.334 2.387 2.334 1.313 0 2.384-1.047 2.387-2.334z"/></g></g></svg>