<svg xmlns="http://www.w3.org/2000/svg" width="40" height="40" viewBox="0 0 40 40"><g><g><path fill="#f16d7f" d="M28.087 22.84c0 3.065-1.585 4.586-3.415 4.586-1.783 0-3.328-1.452-3.349-4.361 0-2.932 1.566-4.564 3.46-4.564 2.006 0 3.305 1.566 3.304 4.338zm-1.52.092c0-1.769-.507-3.244-1.85-3.244-1.212 0-1.873 1.454-1.873 3.288-.022 1.856.683 3.265 1.873 3.265 1.277 0 1.85-1.387 1.85-3.309zM15.33 21.408c-1.784 0-3.326-1.454-3.348-4.384 0-2.907 1.564-4.542 3.458-4.542 2.005 0 3.327 1.568 3.327 4.34 0 3.065-1.585 4.586-3.437 4.586zm.045-1.184c1.277 0 1.85-1.388 1.85-3.31 0-1.77-.506-3.245-1.85-3.245-1.21 0-1.85 1.453-1.85 3.289-.045 1.855.64 3.264 1.85 3.266zm9.472-7.586l-8.416 14.75h-1.233l8.416-14.75zm13.945 14.308l-4.21 1.605.733 4.502-4.496.046-.82 4.49-4.24-1.516-2.29 3.929L20 37.098l-3.473 2.904-2.288-3.93-4.241 1.516-.821-4.49-4.495-.045.732-4.506-4.21-1.601 2.211-3.975L.003 20l3.412-2.973-2.21-3.974 4.21-1.603-.733-4.504 4.495-.044.822-4.49 4.24 1.515 2.29-3.928L20 2.902l3.472-2.904 2.289 3.929L30 2.412l.822 4.49 4.494.045-.732 4.504 4.21 1.603-2.21 3.974L39.995 20l-3.412 2.974zm-2.74-1.014l-1.121-2.014-.766-1.378 1.183-1.03 1.734-1.513-1.733-1.508-1.184-1.03.767-1.379 1.12-2.015-2.133-.813-1.46-.555.255-1.563.372-2.286-2.283-.023-1.56-.017-.285-1.557-.417-2.278-2.152.768-1.468.524-.793-1.36-1.162-1.993-1.762 1.473-1.206 1.007-1.205-1.007-1.762-1.473-1.16 1.993-.794 1.36-1.468-.525-2.151-.768-.417 2.278-.286 1.557-1.56.017-2.282.022.372 2.287.254 1.562-1.46.556-2.134.813 1.12 2.014.767 1.378-1.183 1.03-1.735 1.512 1.734 1.51 1.183 1.03-.766 1.379-1.121 2.014 2.133.812 1.46.556-.255 1.562-.371 2.289 2.282.022 1.56.017.286 1.558.416 2.278 2.153-.77 1.468-.523.793 1.36 1.162 1.994 1.762-1.474 1.205-1.008 1.206 1.008 1.762 1.474 1.161-1.994.792-1.36 1.469.525 2.15.77.418-2.278.285-1.558 1.561-.017 2.282-.021-.372-2.287-.254-1.563 1.46-.556z"/></g></g></svg>