<svg xmlns="http://www.w3.org/2000/svg" width="45" height="32" viewBox="0 0 45 32"><g><g><path fill="#f16d7f" d="M12.039 26.357c0 1.535-1.233 2.784-2.75 2.784-1.516 0-2.75-1.249-2.75-2.784 0-1.535 1.234-2.783 2.75-2.783.513 0 .93.42.93.94 0 .519-.417.94-.93.94a.899.899 0 0 0-.892.903.9.9 0 0 0 .893.904.9.9 0 0 0 .892-.904c0-.519.416-.94.928-.94.513 0 .929.42.929.94zm26.471 0c0 1.535-1.233 2.784-2.749 2.784s-2.75-1.249-2.75-2.784c0-1.535 1.234-2.783 2.75-2.783.513 0 .929.42.929.94 0 .519-.416.94-.929.94a.899.899 0 0 0-.893.903.9.9 0 0 0 .893.904.9.9 0 0 0 .892-.904c0-.519.416-.94.929-.94.513 0 .928.42.928.94zM45 13.874v12.483c0 .52-.416.94-.929.94h-2.815C40.812 29.963 38.518 32 35.762 32c-2.758 0-5.052-2.037-5.496-4.703H14.784C14.341 29.963 12.046 32 9.29 32c-2.757 0-5.052-2.037-5.496-4.703H1.857C.833 27.297 0 26.454 0 25.417V1.88C0 .843.833 0 1.857 0h25.558c1.024 0 1.857.843 1.857 1.88v1.91h7.123c.082 0 .161.01.237.03 2.306.204 3.458 1.408 4.679 3.47l3.56 6.106a.95.95 0 0 1 .129.478zm-3.665 4.035h1.808v-1.85h-.88a.935.935 0 0 0-.928.939zM39.819 8.43h-6.9v3.767c0 .529.425.959.947.959.065 0 .129.007.19.02h8.53zM1.857 25.417h1.937c.444-2.665 2.739-4.702 5.496-4.702 2.757 0 5.051 2.037 5.494 4.702h12.631V1.88H1.857zm11.15.94c0-2.075-1.668-3.763-3.717-3.763-2.05 0-3.717 1.688-3.717 3.763S7.24 30.12 9.29 30.12c2.049 0 3.716-1.688 3.716-3.763zm26.47 0c0-2.075-1.667-3.763-3.715-3.763-2.05 0-3.718 1.688-3.718 3.763s1.668 3.763 3.718 3.763c2.049 0 3.716-1.688 3.716-3.763zm1.779-.94h1.887v-5.629h-2.737a.934.934 0 0 1-.928-.94v-1.85c0-.752.293-1.436.769-1.942h-6.38a.92.92 0 0 1-.23-.03c-1.44-.118-2.575-1.342-2.575-2.83V7.492c0-.52.416-.94.928-.94h6.485c-.653-.629-1.393-.882-2.578-.882h-6.625v19.748h.994c.443-2.665 2.738-4.702 5.495-4.702s5.052 2.037 5.495 4.702zM3.753 4.73c0-.519.416-.94.928-.94h19.91c.513 0 .928.421.928.94 0 .52-.415.94-.928.94H4.68a.934.934 0 0 1-.928-.94z"/></g></g></svg>