<svg xmlns="http://www.w3.org/2000/svg" width="26" height="24" viewBox="0 0 26 24"><g><g><path fill="#ef5b70" d="M0 .978C0 .44.433-.001.96-.001H4.44c.432 0 .817.294.93.718l3.926 14.445h10.707l3.558-8.315h-11.86a.973.973 0 0 1-.962-.978c0-.538.432-.978.961-.978h13.336a.95.95 0 0 1 .801.44c.177.277.209.62.08.93l-4.391 10.27a.963.963 0 0 1-.882.588H8.574a.964.964 0 0 1-.929-.717L3.718 1.956H.961A.973.973 0 0 1 0 .977zM5.48 21.782c0-1.223.978-2.217 2.18-2.217 1.202 0 2.18.995 2.18 2.217 0 1.223-.978 2.217-2.18 2.217-1.202 0-2.18-.994-2.18-2.217zm13.64.147c-.08-1.207.818-2.283 2.02-2.364 1.202-.082 2.244.847 2.324 2.054.032.603-.144 1.174-.529 1.614a2.162 2.162 0 0 1-1.49.766h-.16c-1.139 0-2.084-.913-2.165-2.07z"/></g></g></svg>